<?xml version="1.0" encoding="UTF-8" standalone="no"?>
<svg
   xmlns:dc="http://purl.org/dc/elements/1.1/"
   xmlns:cc="http://creativecommons.org/ns#"
   xmlns:rdf="http://www.w3.org/1999/02/22-rdf-syntax-ns#"
   xmlns:svg="http://www.w3.org/2000/svg"
   xmlns="http://www.w3.org/2000/svg"
   xmlns:sodipodi="http://sodipodi.sourceforge.net/DTD/sodipodi-0.dtd"
   xmlns:inkscape="http://www.inkscape.org/namespaces/inkscape"
   inkscape:version="1.0 (6e3e5246a0, 2020-05-07)"
   sodipodi:docname="icons8-google.svg"
   id="svg55"
   version="1.1"
   height="64px"
   width="64px"
   viewBox="0 0 64 64">
  <metadata
     id="metadata61">
    <rdf:RDF>
      <cc:Work
         rdf:about="">
        <dc:format>image/svg+xml</dc:format>
        <dc:type
           rdf:resource="http://purl.org/dc/dcmitype/StillImage" />
      </cc:Work>
    </rdf:RDF>
  </metadata>
  <defs
     id="defs59" />
  <sodipodi:namedview
     inkscape:current-layer="svg55"
     inkscape:window-maximized="0"
     inkscape:window-y="27"
     inkscape:window-x="0"
     inkscape:cy="36.361643"
     inkscape:cx="12.263949"
     inkscape:zoom="2.8491799"
     showgrid="false"
     id="namedview57"
     inkscape:window-height="480"
     inkscape:window-width="865"
     inkscape:pageshadow="2"
     inkscape:pageopacity="0"
     guidetolerance="10"
     gridtolerance="10"
     objecttolerance="10"
     borderopacity="1"
     bordercolor="#666666"
     pagecolor="#ffffff" />
  <radialGradient
     gradientUnits="userSpaceOnUse"
     gradientTransform="matrix(1 0 0 -1 0 66)"
     r="30.776"
     cy="34.5"
     cx="31.998"
     id="95yY7w43Oj6n2vH63j6HJa">
    <stop
       id="stop2"
       stop-color="#f4e9c3"
       offset="0" />
    <stop
       id="stop4"
       stop-color="#f8eecd"
       offset=".219" />
    <stop
       id="stop6"
       stop-color="#fdf4dc"
       offset=".644" />
    <stop
       id="stop8"
       stop-color="#fff6e1"
       offset="1" />
  </radialGradient>
  <linearGradient
     gradientUnits="userSpaceOnUse"
     gradientTransform="matrix(1 0 0 -1 0 66)"
     y2="106.734"
     y1="4.064"
     x2="29.401"
     x1="29.401"
     id="95yY7w43Oj6n2vH63j6HJb">
    <stop
       id="stop13"
       stop-color="#ff5840"
       offset="0" />
    <stop
       id="stop15"
       stop-color="#ff5840"
       offset=".007" />
    <stop
       id="stop17"
       stop-color="#fa528c"
       offset=".989" />
    <stop
       id="stop19"
       stop-color="#fa528c"
       offset="1" />
  </linearGradient>
  <path
     id="path22"
     d="M47.46,15.5l-1.37,1.48c-1.34,1.44-3.5,1.67-5.15,0.6c-2.71-1.75-6.43-3.13-11-2.37 c-4.94,0.83-9.17,3.85-11.64,7.97l-8.03-6.08C14.99,9.82,23.2,5,32.5,5c5,0,9.94,1.56,14.27,4.46 C48.81,10.83,49.13,13.71,47.46,15.5z"
     fill="url(#95yY7w43Oj6n2vH63j6HJb)" />
  <linearGradient
     gradientUnits="userSpaceOnUse"
     gradientTransform="matrix(1 0 0 -1 0 66)"
     y2="47.812"
     y1=".872"
     x2="12.148"
     x1="12.148"
     id="95yY7w43Oj6n2vH63j6HJc">
    <stop
       id="stop24"
       stop-color="#feaa53"
       offset="0" />
    <stop
       id="stop26"
       stop-color="#ffcd49"
       offset=".612" />
    <stop
       id="stop28"
       stop-color="#ffde44"
       offset="1" />
  </linearGradient>
  <path
     id="path31"
     d="M16.01,30.91c-0.09,2.47,0.37,4.83,1.27,6.96l-8.21,6.05c-1.35-2.51-2.3-5.28-2.75-8.22 c-1.06-6.88,0.54-13.38,3.95-18.6l8.03,6.08C16.93,25.47,16.1,28.11,16.01,30.91z"
     fill="url(#95yY7w43Oj6n2vH63j6HJc)" />
  <linearGradient
     gradientUnits="userSpaceOnUse"
     gradientTransform="matrix(1 0 0 -1 0 66)"
     y2="-6.939"
     y1="32.149"
     x2="29.76"
     x1="29.76"
     id="95yY7w43Oj6n2vH63j6HJd">
    <stop
       id="stop33"
       stop-color="#42d778"
       offset="0" />
    <stop
       id="stop35"
       stop-color="#3dca76"
       offset=".428" />
    <stop
       id="stop37"
       stop-color="#34b171"
       offset="1" />
  </linearGradient>
  <path
     id="path40"
     d="M50.45,51.28c-4.55,4.07-10.61,6.57-17.36,6.71C22.91,58.2,13.66,52.53,9.07,43.92l8.21-6.05 C19.78,43.81,25.67,48,32.5,48c3.94,0,7.52-1.28,10.33-3.44L50.45,51.28z"
     fill="url(#95yY7w43Oj6n2vH63j6HJd)" />
  <linearGradient
     gradientUnits="userSpaceOnUse"
     gradientTransform="matrix(1 0 0 -1 0 66)"
     y2="35.593"
     y1="3.638"
     x2="46"
     x1="46"
     id="95yY7w43Oj6n2vH63j6HJe">
    <stop
       id="stop42"
       stop-color="#155cde"
       offset="0" />
    <stop
       id="stop44"
       stop-color="#1f7fe5"
       offset=".278" />
    <stop
       id="stop46"
       stop-color="#279ceb"
       offset=".569" />
    <stop
       id="stop48"
       stop-color="#2cafef"
       offset=".82" />
    <stop
       id="stop50"
       stop-color="#2eb5f0"
       offset="1" />
  </linearGradient>
  <path
     id="path53"
     d="M59,31.97c0.01,7.73-3.26,14.58-8.55,19.31l-7.62-6.72c2.1-1.61,3.77-3.71,4.84-6.15 c0.29-0.66-0.2-1.41-0.92-1.41H37c-2.21,0-4-1.79-4-4v-2c0-2.21,1.79-4,4-4h17C56.75,27,59,29.22,59,31.97z"
     fill="url(#95yY7w43Oj6n2vH63j6HJe)" />
</svg>
